<svg xmlns="http://www.w3.org/2000/svg" width="56" height="52" viewBox="0 0 56 52">
  <g fill="none" transform="translate(-.122)">
    <path fill="#16BC62" d="M15.0061151 23.8200922C14.5284687 23.8200922 14.1463515 23.4435228 14.1463515 22.9728111L14.1463515 21.8901741C14.1463515 21.4194624 14.5284687 21.042893 15.0061151 21.042893L23.6992806 21.042893C24.176927 21.042893 24.5590442 21.4194624 24.5590442 21.8901741L24.5590442 22.9728111C24.5590442 23.4435228 24.176927 23.8200922 23.6992806 23.8200922L15.0061151 23.8200922zM15.0061151 28.9979211C14.5284687 28.9979211 14.1463515 28.6213518 14.1463515 28.15064L14.1463515 27.0680031C14.1463515 26.5972913 14.5284687 26.220722 15.0061151 26.220722L23.6992806 26.220722C24.176927 26.220722 24.5590442 26.5972913 24.5590442 27.0680031L24.5590442 28.15064C24.5590442 28.6213518 24.176927 28.9979211 23.6992806 28.9979211L15.0061151 28.9979211zM2.44401336 28.9979211C1.96636691 28.9979211 1.58424974 28.6213518 1.58424974 28.15064L1.58424974 27.0680031C1.58424974 26.5972913 1.96636691 26.220722 2.44401336 26.220722L11.1371788 26.220722C11.6148253 26.220722 11.9969424 26.5972913 11.9969424 27.0680031L11.9969424 28.15064C11.9969424 28.6213518 11.6148253 28.9979211 11.1371788 28.9979211L2.44401336 28.9979211zM10.5162384 15.8179928C11.519296 16.8064875 12.0447071 18.1244803 12.0447071 19.5366155 11.9969424 20.9487506 11.4237667 22.2196723 10.4684738 23.1610958 9.56094553 24.1025192 8.22353546 24.6673733 6.79059609 24.6673733 5.35765673 24.6673733 4.06801131 24.1025192 3.06495375 23.1140246 2.0618962 22.12553 1.5364851 20.8075371 1.5364851 19.4424731 1.5364851 16.5711316 3.92471737 14.2646441 6.79059609 14.2646441 8.22353546 14.3117153 9.51318088 14.8294982 10.5162384 15.8179928zM8.7517015 18.9124489L8.33904224 18.9124489 8.33904224 17.4611369 7.85496119 17.4611369 7.85496119 18.9124489 6.62491916 18.9124489 5.59327101 17.4611369 5.11712571 17.4611369 5.11712571 18.9124489 4.70446645 18.9124489 4.70446645 19.3005002 5.11712571 19.3005002 5.11712571 19.7506398 4.70446645 19.7506398 4.70446645 20.1386911 5.11712571 20.1386911 5.11712571 21.4347826 5.60914252 21.4347826 5.60914252 20.1386911 6.94234936 20.1386911 7.86289694 21.4347826 8.33904224 21.4347826 8.33904224 20.1386911 8.7517015 20.1386911 8.7517015 19.7506398 8.33904224 19.7506398 8.33904224 19.3005002 8.7517015 19.3005002 8.7517015 18.9124489zM6.34915167 19.3005002L6.66856581 19.7506398 5.60914252 19.7506398 5.60914252 19.3005002 6.34915167 19.3005002zM7.85496119 19.3005002L7.85496119 19.7506398 7.22010079 19.7506398 6.90068665 19.3005002 7.85496119 19.3005002zM5.60914252 18.9124489L5.60914252 18.3148498 5.64882129 18.3148498 6.07338419 18.9124489 5.60914252 18.9124489zM7.49586827 20.1386911L7.85496119 20.1386911 7.85496119 20.5888307 7.81528241 20.5888307 7.49586827 20.1386911zM1.29766187 5.65061956C.67672148 4.05019969.246839671 2.35563748.00801644399.566932924-.0397482014.237434716.15131038.0491500256.485662898.0491500256.67672148.0491500256.867780062.0491500256 1.05883864.0962211982 2.73060123.237434716 4.35459918.378648233 5.97859712.755217614 6.31294964.755217614 6.55177287.849359959 6.83836074.896431132 8.70118191 1.41421403 10.5640031 1.83785458 12.2835303 2.73220686 13.4298818 3.3441321 14.480704 4.23848438 15.1971737 5.32112135 15.6748201 6.07426011 15.9136434 6.92154122 15.9136434 7.8158935 15.9136434 8.56903226 15.9136434 9.65166923 15.4837616 10.2635945 15.4837616 10.3577368 15.4837616 10.4518792 15.5315262 10.4989503 16.0091727 11.0638044 16.4868191 11.769872 16.9167009 12.6171531L16.9167009 12.6171531 16.9167009 12.6171531C16.9644656 12.7583666 17.0599949 12.9466513 17.1077595 13.134936 17.1077595 13.1820072 17.1555242 13.2761495 17.2032888 13.3232207 17.2510534 13.1820072 17.2988181 13.0407937 17.3465827 12.9466513 17.442112 12.7583666 17.4898767 12.5700819 17.585406 12.4288684 17.6809353 12.1935125 17.8242292 11.9581567 17.8719938 11.6757296 17.9197585 11.3933026 17.7764645 11.1108756 17.7286999 10.8284485 17.4898767 8.89853047 17.6809353 7.01568356 18.3496403 5.17990783 18.7795221 4.00312852 19.5915211 3.10877624 20.6423433 2.44977983 21.6931655 1.79078341 22.8872816 1.41421403 24.0813977 1.03764465 24.4157503.943502304 24.7023381.849359959 25.0366906.802288786 25.3232785.755217614 25.5143371.896431132 25.5143371 1.13178699 25.657631 2.44977983 25.800925 3.76777266 25.8964543 5.13283666 25.9919836 6.49790067 25.9919836 7.8158935 25.6098664 9.1809575 25.3232785 10.2165233 24.8456321 11.1108756 23.8903392 11.7228008 22.9828109 12.2876549 21.9319887 12.6171531 20.8811665 12.7583666 20.0691675 12.852509 19.2571686 12.852509 18.4451696 12.7112954 18.254111 13.0878648 18.1585817 13.4644342 18.0630524 13.8880748 18.0152878 14.217573 17.9675231 14.5470712 17.9197585 14.8294982 17.7764645 15.9121352 18.1585817 16.3357757 18.1585817 17.3713415 18.1585817 17.7479109 18.0152878 17.9832668 17.7764645 18.1244803 17.5376413 18.2186226 17.2510534 18.1715515 16.9644656 17.9832668 16.5823484 17.7008397 16.4868191 17.230128 16.4390545 16.7594163 16.3912898 16.3357757 16.3912898 16.4769892 16.3435252 16.0062775 16.2002312 14.8294982 15.9136434 13.6527189 15.3882323 12.6171531 15.1016444 12.052299 14.7195272 11.5815873 14.3374101 11.1108756 13.9075283 10.6401639 13.4776465 10.2165233 13.0955293 9.74581157 12.6656475 9.1809575 12.0447071 8.71024578 11.519296 8.19246288 10.4684738 7.20396825 9.3221223 6.2625448 8.17577081 5.36819252 7.02941932 4.47384025 5.83530319 3.67363031 4.5934224 2.92049155 6.1696557 4.33262673 7.98471223 5.93304659 9.70423947 7.58053763 11.2804728 9.08681516 13.8597636 12.3347261 14.3851747 12.9466513 14.4329394 12.9937225 14.3851747 13.0407937 14.3374101 13.0407937 14.2418808 13.0407937 14.0985868 13.0878648 14.0030576 13.0878648 13.3821172 13.1820072 12.8567061 13.1820072 12.2357657 13.134936 11.4715313 13.134936 10.707297 13.134936 9.94306269 13.0878648 9.94306269 13.0878648 9.94306269 13.0878648 9.94306269 13.0878648 7.60259507 12.8995801 5.6442446 12.052299 4.11577595 10.2635945 2.87389517 8.89853047 1.96636691 7.2981106 1.29766187 5.65061956z" transform="translate(15.122)"/>
    <path fill="#FFF" d="M7.54127979 41.2042629C7.54127979 42.6869449 7.04064668 43.8259325 6.22859612 44.5452931L7.34812213 46 5.92900465 46 5.26280784 45.1407638C4.82524662 45.3166075 4.34432347 45.4085258 3.83186438 45.4085258 1.71107215 45.4085258.12244898 43.8459147.12244898 41.2042629.12244898 38.5586146 1.71107215 37 3.83186438 37 5.94871462 37 7.54127979 38.5586146 7.54127979 41.2042629zM3.33517327 42.5470693L4.65968291 42.5470693 5.34558969 43.4502664C5.80286088 42.9666963 6.0709164 42.2113677 6.0709164 41.2042629 6.0709164 39.3419183 5.14849004 38.3308171 3.83186438 38.3308171 2.51918072 38.3308171 1.59281237 39.3419183 1.59281237 41.2042629 1.59281237 43.0666075 2.51918072 44.0777087 3.83186438 44.0777087 4.04079001 44.0777087 4.23788966 44.05373 4.42710533 44.0017762L3.33517327 42.5470693zM12.7210668 40.6287744L12.7210668 41.7477798 8.84214568 41.7477798 8.84214568 40.6287744 12.7210668 40.6287744zM18.6025254 39.3619005C18.5276275 38.6665187 17.9520965 38.2548845 17.0809161 38.2548845 16.1663737 38.2548845 15.6223787 38.7064831 15.6184367 39.3219361 15.6105527 40.0053286 16.3279954 40.2890764 16.9902502 40.4489343L17.7471129 40.6407638C18.9612467 40.9325044 20.1162507 41.579929 20.1201927 42.9986679 20.1162507 44.4413854 18.9927827 45.4205151 17.0572641 45.4205151 15.1769335 45.4205151 13.9825096 44.5053286 13.9233797 42.8787744L15.3622071 42.8787744C15.421337 43.7380107 16.1308958 44.1536412 17.0454381 44.1536412 17.9994004 44.1536412 18.6537713 43.6860568 18.6577133 42.9866785 18.6537713 42.3512433 18.0782403 42.0754885 17.2070598 41.8516874L16.2885755 41.6119005C14.9601238 41.2642096 14.1362473 40.5888099 14.1362473 39.4138544 14.1323053 37.9671403 15.405569 37 17.100626 37 18.819335 37 19.9822229 37.9791297 20.0098169 39.3619005L18.6025254 39.3619005zM21.4210572 45.2966252L21.4210572 37.1119005 26.6717919 37.1119005 26.6717919 38.3547957 22.8835366 38.3547957 22.8835366 40.5768206 26.3997944 40.5768206 26.3997944 41.8197158 22.8835366 41.8197158 22.8835366 44.05373 26.7033278 44.05373 26.7033278 45.2966252 21.4210572 45.2966252zM28.1658137 45.2966252L28.1658137 37.1119005 33.4165483 37.1119005 33.4165483 38.3547957 29.6282931 38.3547957 29.6282931 40.5768206 33.1445508 40.5768206 33.1445508 41.8197158 29.6282931 41.8197158 29.6282931 44.05373 33.4480843 44.05373 33.4480843 45.2966252 28.1658137 45.2966252zM37.6463132 45.2966252L34.9105701 45.2966252 34.9105701 37.1119005 37.7015011 37.1119005C40.1061169 37.1119005 41.5646543 38.6465364 41.5646543 41.19627 41.5646543 43.7539964 40.1061169 45.2966252 37.6463132 45.2966252zM36.3730495 44.0137655L37.5753574 44.0137655C39.2585884 44.0137655 40.1140008 43.0785968 40.1140008 41.19627 40.1140008 39.3219361 39.2585884 38.3947602 37.6187193 38.3947602L36.3730495 38.3947602 36.3730495 44.0137655zM42.9522435 45.2966252L42.9522435 37.1119005 46.0664179 37.1119005C47.8363728 37.1119005 48.865233 38.1230018 48.865233 39.6816163 48.865233 40.7446714 48.3488319 41.5679396 47.4145795 41.9715808L49.1648244 45.2966252 47.5328393 45.2966252 45.9363322 42.2193606 44.4147229 42.2193606 44.4147229 45.2966252 42.9522435 45.2966252zM44.4147229 41.0563943L45.8969122 41.0563943C46.8824105 41.0563943 47.3672756 40.5408526 47.3672756 39.7095915 47.3672756 38.8623446 46.8627005 38.3507993 45.9639261 38.3507993L44.4147229 38.3507993 44.4147229 41.0563943zM54.6047817 39.3619005C54.5298838 38.6665187 53.9543528 38.2548845 53.0831724 38.2548845 52.16863 38.2548845 51.624635 38.7064831 51.620693 39.3219361 51.612809 40.0053286 52.3302517 40.2890764 52.9925065 40.4489343L53.7493692 40.6407638C54.963503 40.9325044 56.118507 41.579929 56.122449 42.9986679 56.118507 44.4413854 54.995039 45.4205151 53.0595204 45.4205151 51.1791898 45.4205151 49.9847659 44.5053286 49.925636 42.8787744L51.3644634 42.8787744C51.4235933 43.7380107 52.1331521 44.1536412 53.0476944 44.1536412 54.0016568 44.1536412 54.6560276 43.6860568 54.6599696 42.9866785 54.6560276 42.3512433 54.0804966 42.0754885 53.2093162 41.8516874L52.2908318 41.6119005C50.9623802 41.2642096 50.1385036 40.5888099 50.1385036 39.4138544 50.1345616 37.9671403 51.4078254 37 53.1028823 37 54.8215913 37 55.9844792 37.9791297 56.0120732 39.3619005L54.6047817 39.3619005zM4.68992604 48.0530806L4.68992604 51.935545 4.12244898 51.935545 4.12244898 48.0530806 4.68992604 48.0530806zM10.10355 48.0530806L10.10355 51.935545 9.58198533 51.935545 7.67019367 49.0881517 7.63530026 49.0881517 7.63530026 51.935545 7.0678232 51.935545 7.0678232 48.0530806 7.59306087 48.0530806 9.50668902 50.9042654 9.54158243 50.9042654 9.54158243 48.0530806 10.10355 48.0530806zM12.8101822 48.0530806L13.8569845 51.2151659 13.8992239 51.2151659 14.9460263 48.0530806 15.5594157 48.0530806 14.2059186 51.935545 13.5502898 51.935545 12.1967927 48.0530806 12.8101822 48.0530806zM17.6526582 51.935545L17.6526582 48.0530806 20.0107182 48.0530806 20.0107182 48.557346 18.2201353 48.557346 18.2201353 49.7402844 19.8876731 49.7402844 19.8876731 50.242654 18.2201353 50.242654 18.2201353 51.4312796 20.0327562 51.4312796 20.0327562 51.935545 17.6526582 51.935545zM24.3738685 49.0729858C24.3334656 48.7146919 24.0267709 48.5061611 23.5951945 48.5061611 23.1323977 48.5061611 22.8403949 48.7507109 22.8403949 49.0805687 22.8385584 49.4521327 23.2297319 49.5943128 23.5235712 49.6720379L23.8908702 49.7706161C24.368359 49.8919431 24.972566 50.1630332 24.972566 50.8625592 24.972566 51.5203791 24.4638568 52 23.5805025 52 22.7375512 52 22.210477 51.5658768 22.1737471 50.8625592L22.7430606 50.8625592C22.7761176 51.2853081 23.1397436 51.4862559 23.5768295 51.4862559 24.0598278 51.4862559 24.4105984 51.236019 24.4105984 50.856872 24.4105984 50.5118483 24.1002307 50.3753555 23.6980382 50.2654028L23.2536064 50.1402844C22.6493994 49.971564 22.2747543 49.6549763 22.2747543 49.1146919 22.2747543 48.4454976 22.8532504 48 23.60805 48 24.372032 48 24.9046157 48.4511848 24.9211441 49.0729858L24.3738685 49.0729858zM27.0162228 48.557346L27.0162228 48.0530806 29.927068 48.0530806 29.927068 48.557346 28.7535474 48.557346 28.7535474 51.935545 28.1879069 51.935545 28.1879069 48.557346 27.0162228 48.557346zM32.119481 48.0530806L32.8081667 48.0530806 34.0055617 51.07109 34.0496376 51.07109 35.2470326 48.0530806 35.9357183 48.0530806 35.9357183 51.935545 35.3957887 51.935545 35.3957887 49.1260664 35.3608953 49.1260664 34.2516521 51.9298578 33.8035472 51.9298578 32.694304 49.1241706 32.6594106 49.1241706 32.6594106 51.935545 32.119481 51.935545 32.119481 48.0530806zM38.3136186 51.935545L38.3136186 48.0530806 40.6716786 48.0530806 40.6716786 48.557346 38.8810956 48.557346 38.8810956 49.7402844 40.5486334 49.7402844 40.5486334 50.242654 38.8810956 50.242654 38.8810956 51.4312796 40.6937165 51.4312796 40.6937165 51.935545 38.3136186 51.935545zM46.0191904 48.0530806L46.0191904 51.935545 45.4976257 51.935545 43.585834 49.0881517 43.5509406 49.0881517 43.5509406 51.935545 42.9834636 51.935545 42.9834636 48.0530806 43.5087012 48.0530806 45.4223294 50.9042654 45.4572228 50.9042654 45.4572228 48.0530806 46.0191904 48.0530806zM48.2116038 48.557346L48.2116038 48.0530806 51.122449 48.0530806 51.122449 48.557346 49.9489285 48.557346 49.9489285 51.935545 49.3832879 51.935545 49.3832879 48.557346 48.2116038 48.557346z"/>
  </g>
</svg>
